<?xml version="1.0" standalone="no"?>
<!DOCTYPE svg PUBLIC "-//W3C//DTD SVG 20010904//EN"
 "http://www.w3.org/TR/2001/REC-SVG-20010904/DTD/svg10.dtd">
<svg version="1.0" xmlns="http://www.w3.org/2000/svg"
 width="512.000000pt" height="512.000000pt" viewBox="0 0 512.000000 512.000000"
 preserveAspectRatio="xMidYMid meet">
<metadata>
Created by potrace 1.14, written by Peter Selinger 2001-2017
</metadata>
<g transform="translate(0.000000,512.000000) scale(0.100000,-0.100000)"
fill="#000000" stroke="none">
<path d="M1124 5083 c-19 -20 -34 -40 -34 -44 0 -6 -159 -278 -206 -351 l-24
-38 -85 0 c-100 0 -132 -12 -143 -54 -5 -17 -8 -143 -7 -280 l1 -248 27 -24
c25 -21 38 -24 108 -24 43 0 79 -2 79 -5 0 -9 39 -360 45 -397 4 -32 9 -78 24
-215 l7 -63 -48 0 c-57 0 -104 -21 -113 -50 -6 -19 -3 -70 10 -165 2 -16 7
-55 10 -85 3 -30 7 -71 10 -90 3 -19 7 -60 10 -90 3 -30 8 -68 10 -85 10 -81
15 -125 21 -180 3 -33 7 -71 9 -85 5 -29 23 -183 30 -255 3 -27 8 -66 10 -85
3 -19 7 -57 10 -85 10 -89 16 -139 22 -180 3 -22 7 -58 9 -80 2 -41 11 -118
19 -170 3 -16 7 -55 10 -85 3 -30 7 -68 10 -85 2 -16 6 -57 10 -90 14 -130 24
-177 42 -191 23 -17 18 -16 91 -19 35 -2 65 -5 66 -6 2 -2 7 -33 10 -69 4 -36
9 -78 11 -95 7 -52 17 -139 20 -170 4 -40 25 -222 30 -260 2 -16 7 -57 10 -90
3 -33 8 -71 10 -85 2 -14 7 -52 10 -85 4 -33 8 -71 10 -85 2 -14 6 -56 10 -95
8 -88 20 -119 51 -134 32 -14 497 -15 525 -1 10 6 25 23 33 39 14 26 18 28 81
26 61 -1 67 -3 85 -30 11 -16 27 -33 37 -37 10 -3 392 -7 849 -7 811 -1 831
-1 851 19 26 23 36 78 58 300 5 49 17 155 20 180 2 14 6 48 9 75 5 47 22 182
30 250 2 17 7 61 11 98 3 37 8 76 10 85 1 9 6 51 10 92 4 41 9 77 10 79 2 2
32 4 67 6 35 1 70 5 80 9 21 10 36 48 43 116 3 30 8 71 10 90 7 50 13 107 20
170 3 30 7 66 10 80 2 14 7 52 10 85 3 33 7 76 10 95 3 19 7 56 10 83 11 103
16 143 20 172 2 17 7 55 10 85 3 30 8 71 10 90 3 19 9 76 15 125 5 50 12 108
15 130 2 22 9 83 15 135 6 52 13 111 15 130 2 19 7 62 11 95 3 33 8 68 9 77 2
9 7 48 10 85 4 37 8 79 10 93 2 14 7 54 10 90 10 99 -10 117 -143 119 -13 1
-21 4 -19 9 3 4 8 41 11 82 4 41 9 89 11 105 9 61 14 102 21 170 3 39 8 78 10
89 2 10 6 51 10 90 4 39 8 78 10 86 1 8 3 23 3 33 1 15 12 17 76 17 86 0 121
13 133 49 6 20 9 440 3 524 -2 37 -37 52 -138 57 l-97 5 -128 215 c-70 118
-137 223 -149 233 -20 16 -103 17 -1421 17 l-1400 0 -34 -37z"/>
</g>
</svg>
